<?xml version="1.0" standalone="no"?>
<!DOCTYPE svg PUBLIC "-//W3C//DTD SVG 1.1//EN" "http://www.w3.org/Graphics/SVG/1.1/DTD/svg11.dtd">
<svg version="1.1" xmlns="http://www.w3.org/2000/svg" viewBox="0 0 509.9319691466835 474.6003076692741" width="509.9319691466835" height="474.6003076692741"><!-- svg-source:excalidraw --><metadata></metadata><defs><style class="style-fonts">
      </style></defs><g stroke-linecap="round" transform="translate(10 10) rotate(0 244.96598457334176 227.30015383463706)"><path d="M489.93 227.3 C489.93 232.06, 489.77 236.82, 489.45 241.57 C489.13 246.32, 488.64 251.07, 488 255.79 C487.36 260.51, 486.55 265.22, 485.59 269.89 C484.63 274.57, 483.51 279.22, 482.24 283.83 C480.96 288.44, 479.53 293.02, 477.94 297.54 C476.36 302.06, 474.62 306.55, 472.73 310.97 C470.84 315.4, 468.8 319.78, 466.62 324.08 C464.43 328.38, 462.1 332.63, 459.63 336.8 C457.16 340.97, 454.54 345.08, 451.8 349.09 C449.05 353.11, 446.16 357.05, 443.15 360.9 C440.13 364.75, 436.98 368.52, 433.72 372.19 C430.45 375.85, 427.05 379.43, 423.54 382.9 C420.03 386.37, 416.39 389.74, 412.66 392.99 C408.92 396.25, 405.06 399.41, 401.11 402.44 C397.16 405.47, 393.1 408.39, 388.95 411.19 C384.81 413.99, 380.55 416.67, 376.23 419.22 C371.9 421.77, 367.47 424.19, 362.98 426.48 C358.49 428.78, 353.91 430.94, 349.27 432.97 C344.63 434.99, 339.91 436.89, 335.14 438.64 C330.38 440.39, 325.54 442.01, 320.66 443.48 C315.79 444.95, 310.85 446.28, 305.89 447.46 C300.92 448.64, 295.9 449.68, 290.87 450.57 C285.83 451.47, 280.76 452.21, 275.67 452.81 C270.58 453.4, 265.46 453.85, 260.35 454.15 C255.23 454.45, 250.09 454.6, 244.97 454.6 C239.84 454.6, 234.7 454.45, 229.58 454.15 C224.47 453.85, 219.35 453.4, 214.26 452.81 C209.18 452.21, 204.1 451.47, 199.06 450.57 C194.03 449.68, 189.01 448.64, 184.05 447.46 C179.08 446.28, 174.14 444.95, 169.27 443.48 C164.39 442.01, 159.56 440.39, 154.79 438.64 C150.02 436.89, 145.3 434.99, 140.66 432.97 C136.03 430.94, 131.45 428.78, 126.95 426.48 C122.46 424.19, 118.04 421.77, 113.71 419.22 C109.38 416.67, 105.13 413.99, 100.98 411.19 C96.83 408.39, 92.77 405.47, 88.82 402.44 C84.87 399.41, 81.01 396.25, 77.28 392.99 C73.54 389.74, 69.9 386.37, 66.39 382.9 C62.88 379.43, 59.48 375.85, 56.22 372.19 C52.95 368.52, 49.8 364.75, 46.78 360.9 C43.77 357.05, 40.88 353.11, 38.13 349.09 C35.39 345.08, 32.77 340.97, 30.3 336.8 C27.83 332.63, 25.5 328.38, 23.31 324.08 C21.13 319.78, 19.09 315.4, 17.2 310.97 C15.31 306.55, 13.57 302.06, 11.99 297.54 C10.41 293.02, 8.97 288.44, 7.7 283.83 C6.42 279.22, 5.3 274.57, 4.34 269.89 C3.38 265.22, 2.57 260.51, 1.93 255.79 C1.29 251.07, 0.81 246.32, 0.48 241.57 C0.16 236.82, 0 232.06, 0 227.3 C0 222.54, 0.16 217.78, 0.48 213.03 C0.81 208.28, 1.29 203.53, 1.93 198.81 C2.57 194.09, 3.38 189.38, 4.34 184.71 C5.3 180.04, 6.42 175.38, 7.7 170.77 C8.97 166.16, 10.41 161.59, 11.99 157.06 C13.57 152.54, 15.31 148.05, 17.2 143.63 C19.09 139.2, 21.13 134.83, 23.31 130.52 C25.5 126.22, 27.83 121.97, 30.3 117.8 C32.77 113.63, 35.39 109.52, 38.13 105.51 C40.88 101.49, 43.77 97.55, 46.78 93.7 C49.8 89.85, 52.95 86.08, 56.22 82.41 C59.48 78.75, 62.88 75.17, 66.39 71.7 C69.9 68.23, 73.54 64.86, 77.28 61.61 C81.01 58.35, 84.87 55.19, 88.82 52.16 C92.77 49.13, 96.83 46.21, 100.98 43.41 C105.13 40.61, 109.38 37.93, 113.71 35.38 C118.04 32.84, 122.46 30.41, 126.95 28.12 C131.45 25.82, 136.03 23.66, 140.66 21.63 C145.3 19.61, 150.02 17.71, 154.79 15.96 C159.56 14.21, 164.39 12.59, 169.27 11.12 C174.14 9.65, 179.08 8.32, 184.05 7.14 C189.01 5.96, 194.03 4.92, 199.06 4.03 C204.1 3.13, 209.18 2.39, 214.26 1.79 C219.35 1.2, 224.47 0.75, 229.58 0.45 C234.7 0.15, 239.84 0, 244.97 0 C250.09 0, 255.23 0.15, 260.35 0.45 C265.46 0.75, 270.58 1.2, 275.67 1.79 C280.76 2.39, 285.83 3.13, 290.87 4.03 C295.9 4.92, 300.92 5.96, 305.89 7.14 C310.85 8.32, 315.79 9.65, 320.66 11.12 C325.54 12.59, 330.38 14.21, 335.14 15.96 C339.91 17.71, 344.63 19.61, 349.27 21.63 C353.91 23.66, 358.49 25.82, 362.98 28.12 C367.47 30.41, 371.9 32.84, 376.23 35.38 C380.55 37.93, 384.81 40.61, 388.95 43.41 C393.1 46.21, 397.16 49.13, 401.11 52.16 C405.06 55.19, 408.92 58.35, 412.66 61.61 C416.39 64.86, 420.03 68.23, 423.54 71.7 C427.05 75.17, 430.45 78.75, 433.72 82.41 C436.98 86.08, 440.13 89.85, 443.15 93.7 C446.16 97.55, 449.05 101.49, 451.8 105.51 C454.54 109.52, 457.16 113.63, 459.63 117.8 C462.1 121.97, 464.43 126.22, 466.62 130.52 C468.8 134.83, 470.84 139.2, 472.73 143.63 C474.62 148.05, 476.36 152.54, 477.94 157.06 C479.53 161.59, 480.96 166.16, 482.24 170.77 C483.51 175.38, 484.63 180.04, 485.59 184.71 C486.55 189.38, 487.36 194.09, 488 198.81 C488.64 203.53, 489.13 208.28, 489.45 213.03 C489.77 217.78, 489.85 224.92, 489.93 227.3 C490.01 229.68, 490.01 224.92, 489.93 227.3" stroke="none" stroke-width="0" fill="#c75923"></path><path d="M489.93 227.3 C489.93 232.06, 489.77 236.82, 489.45 241.57 C489.13 246.32, 488.64 251.07, 488 255.79 C487.36 260.51, 486.55 265.22, 485.59 269.89 C484.63 274.57, 483.51 279.22, 482.24 283.83 C480.96 288.44, 479.53 293.02, 477.94 297.54 C476.36 302.06, 474.62 306.55, 472.73 310.97 C470.84 315.4, 468.8 319.78, 466.62 324.08 C464.43 328.38, 462.1 332.63, 459.63 336.8 C457.16 340.97, 454.54 345.08, 451.8 349.09 C449.05 353.11, 446.16 357.05, 443.15 360.9 C440.13 364.75, 436.98 368.52, 433.72 372.19 C430.45 375.85, 427.05 379.43, 423.54 382.9 C420.03 386.37, 416.39 389.74, 412.66 392.99 C408.92 396.25, 405.06 399.41, 401.11 402.44 C397.16 405.47, 393.1 408.39, 388.95 411.19 C384.81 413.99, 380.55 416.67, 376.23 419.22 C371.9 421.77, 367.47 424.19, 362.98 426.48 C358.49 428.78, 353.91 430.94, 349.27 432.97 C344.63 434.99, 339.91 436.89, 335.14 438.64 C330.38 440.39, 325.54 442.01, 320.66 443.48 C315.79 444.95, 310.85 446.28, 305.89 447.46 C300.92 448.64, 295.9 449.68, 290.87 450.57 C285.83 451.47, 280.76 452.21, 275.67 452.81 C270.58 453.4, 265.46 453.85, 260.35 454.15 C255.23 454.45, 250.09 454.6, 244.97 454.6 C239.84 454.6, 234.7 454.45, 229.58 454.15 C224.47 453.85, 219.35 453.4, 214.26 452.81 C209.18 452.21, 204.1 451.47, 199.06 450.57 C194.03 449.68, 189.01 448.64, 184.05 447.46 C179.08 446.28, 174.14 444.95, 169.27 443.48 C164.39 442.01, 159.56 440.39, 154.79 438.64 C150.02 436.89, 145.3 434.99, 140.66 432.97 C136.03 430.94, 131.45 428.78, 126.95 426.48 C122.46 424.19, 118.04 421.77, 113.71 419.22 C109.38 416.67, 105.13 413.99, 100.98 411.19 C96.83 408.39, 92.77 405.47, 88.82 402.44 C84.87 399.41, 81.01 396.25, 77.28 392.99 C73.54 389.74, 69.9 386.37, 66.39 382.9 C62.88 379.43, 59.48 375.85, 56.22 372.19 C52.95 368.52, 49.8 364.75, 46.78 360.9 C43.77 357.05, 40.88 353.11, 38.13 349.09 C35.39 345.08, 32.77 340.97, 30.3 336.8 C27.83 332.63, 25.5 328.38, 23.31 324.08 C21.13 319.78, 19.09 315.4, 17.2 310.97 C15.31 306.55, 13.57 302.06, 11.99 297.54 C10.41 293.02, 8.97 288.44, 7.7 283.83 C6.42 279.22, 5.3 274.57, 4.34 269.89 C3.38 265.22, 2.57 260.51, 1.93 255.79 C1.29 251.07, 0.81 246.32, 0.48 241.57 C0.16 236.82, 0 232.06, 0 227.3 C0 222.54, 0.16 217.78, 0.48 213.03 C0.81 208.28, 1.29 203.53, 1.93 198.81 C2.57 194.09, 3.38 189.38, 4.34 184.71 C5.3 180.04, 6.42 175.38, 7.7 170.77 C8.97 166.16, 10.41 161.59, 11.99 157.06 C13.57 152.54, 15.31 148.05, 17.2 143.63 C19.09 139.2, 21.13 134.83, 23.31 130.52 C25.5 126.22, 27.83 121.97, 30.3 117.8 C32.77 113.63, 35.39 109.52, 38.13 105.51 C40.88 101.49, 43.77 97.55, 46.78 93.7 C49.8 89.85, 52.95 86.08, 56.22 82.41 C59.48 78.75, 62.88 75.17, 66.39 71.7 C69.9 68.23, 73.54 64.86, 77.28 61.61 C81.01 58.35, 84.87 55.19, 88.82 52.16 C92.77 49.13, 96.83 46.21, 100.98 43.41 C105.13 40.61, 109.38 37.93, 113.71 35.38 C118.04 32.84, 122.46 30.41, 126.95 28.12 C131.45 25.82, 136.03 23.66, 140.66 21.63 C145.3 19.61, 150.02 17.71, 154.79 15.96 C159.56 14.21, 164.39 12.59, 169.27 11.12 C174.14 9.65, 179.08 8.32, 184.05 7.14 C189.01 5.96, 194.03 4.92, 199.06 4.03 C204.1 3.13, 209.18 2.39, 214.26 1.79 C219.35 1.2, 224.47 0.75, 229.58 0.45 C234.7 0.15, 239.84 0, 244.97 0 C250.09 0, 255.23 0.15, 260.35 0.45 C265.46 0.75, 270.58 1.2, 275.67 1.79 C280.76 2.39, 285.83 3.13, 290.87 4.03 C295.9 4.92, 300.92 5.96, 305.89 7.14 C310.85 8.32, 315.79 9.65, 320.66 11.12 C325.54 12.59, 330.38 14.21, 335.14 15.96 C339.91 17.71, 344.63 19.61, 349.27 21.63 C353.91 23.66, 358.49 25.82, 362.98 28.12 C367.47 30.41, 371.9 32.84, 376.23 35.38 C380.55 37.93, 384.81 40.61, 388.95 43.41 C393.1 46.21, 397.16 49.13, 401.11 52.16 C405.06 55.19, 408.92 58.35, 412.66 61.61 C416.39 64.86, 420.03 68.23, 423.54 71.7 C427.05 75.17, 430.45 78.75, 433.72 82.41 C436.98 86.08, 440.13 89.85, 443.15 93.7 C446.16 97.55, 449.05 101.49, 451.8 105.51 C454.54 109.52, 457.16 113.63, 459.63 117.8 C462.1 121.97, 464.43 126.22, 466.62 130.52 C468.8 134.83, 470.84 139.2, 472.73 143.63 C474.62 148.05, 476.36 152.54, 477.94 157.06 C479.53 161.59, 480.96 166.16, 482.24 170.77 C483.51 175.38, 484.63 180.04, 485.59 184.71 C486.55 189.38, 487.36 194.09, 488 198.81 C488.64 203.53, 489.13 208.28, 489.45 213.03 C489.77 217.78, 489.85 224.92, 489.93 227.3 C490.01 229.68, 490.01 224.92, 489.93 227.3" stroke="#c75923" stroke-width="4" fill="none"></path></g><g stroke-linecap="round" transform="translate(31.984210145889392 28.058383456636875) rotate(0 222.19669894258732 210.81208607820508)"><path d="M444.39 210.81 C444.39 215.41, 444.23 220.01, 443.92 224.6 C443.6 229.19, 443.12 233.77, 442.49 238.33 C441.86 242.89, 441.07 247.43, 440.12 251.94 C439.18 256.45, 438.08 260.93, 436.82 265.37 C435.57 269.81, 434.16 274.22, 432.6 278.58 C431.04 282.93, 429.33 287.24, 427.48 291.49 C425.63 295.73, 423.62 299.93, 421.48 304.05 C419.34 308.17, 417.05 312.24, 414.62 316.22 C412.2 320.2, 409.64 324.11, 406.95 327.93 C404.26 331.75, 401.43 335.5, 398.48 339.15 C395.53 342.79, 392.45 346.35, 389.25 349.81 C386.06 353.27, 382.74 356.63, 379.31 359.88 C375.89 363.13, 372.34 366.28, 368.7 369.31 C365.06 372.34, 361.3 375.26, 357.46 378.06 C353.62 380.86, 349.67 383.54, 345.64 386.1 C341.61 388.65, 337.49 391.08, 333.3 393.38 C329.1 395.68, 324.82 397.85, 320.47 399.88 C316.13 401.92, 311.7 403.82, 307.23 405.58 C302.75 407.34, 298.21 408.96, 293.62 410.44 C289.03 411.91, 284.38 413.25, 279.71 414.44 C275.03 415.63, 270.3 416.68, 265.55 417.57 C260.79 418.47, 256 419.22, 251.2 419.82 C246.4 420.42, 241.56 420.87, 236.73 421.17 C231.9 421.47, 227.04 421.62, 222.2 421.62 C217.35 421.62, 212.5 421.47, 207.66 421.17 C202.83 420.87, 198 420.42, 193.19 419.82 C188.39 419.22, 183.6 418.47, 178.85 417.57 C174.1 416.68, 169.37 415.63, 164.69 414.44 C160.01 413.25, 155.36 411.91, 150.77 410.44 C146.19 408.96, 141.64 407.34, 137.17 405.58 C132.69 403.82, 128.27 401.92, 123.92 399.88 C119.58 397.85, 115.29 395.68, 111.1 393.38 C106.9 391.08, 102.78 388.65, 98.75 386.1 C94.72 383.54, 90.78 380.86, 86.93 378.06 C83.09 375.26, 79.33 372.34, 75.69 369.31 C72.05 366.28, 68.51 363.13, 65.08 359.88 C61.65 356.63, 58.33 353.27, 55.14 349.81 C51.95 346.35, 48.87 342.79, 45.92 339.15 C42.97 335.5, 40.14 331.75, 37.45 327.93 C34.76 324.11, 32.19 320.2, 29.77 316.22 C27.35 312.24, 25.06 308.17, 22.91 304.05 C20.77 299.93, 18.77 295.73, 16.91 291.49 C15.06 287.24, 13.35 282.93, 11.79 278.58 C10.23 274.22, 8.82 269.81, 7.57 265.37 C6.32 260.93, 5.21 256.45, 4.27 251.94 C3.32 247.43, 2.53 242.89, 1.9 238.33 C1.27 233.77, 0.79 229.19, 0.48 224.6 C0.16 220.01, 0 215.41, 0 210.81 C0 206.22, 0.16 201.61, 0.48 197.02 C0.79 192.44, 1.27 187.85, 1.9 183.3 C2.53 178.74, 3.32 174.19, 4.27 169.68 C5.21 165.18, 6.32 160.69, 7.57 156.25 C8.82 151.81, 10.23 147.4, 11.79 143.05 C13.35 138.7, 15.06 134.38, 16.91 130.14 C18.77 125.89, 20.77 121.69, 22.91 117.57 C25.06 113.45, 27.35 109.39, 29.77 105.41 C32.19 101.43, 34.76 97.51, 37.45 93.69 C40.14 89.87, 42.97 86.12, 45.92 82.48 C48.87 78.83, 51.95 75.27, 55.14 71.81 C58.33 68.36, 61.65 65, 65.08 61.75 C68.51 58.5, 72.05 55.35, 75.69 52.32 C79.33 49.28, 83.09 46.36, 86.93 43.56 C90.78 40.77, 94.72 38.08, 98.75 35.53 C102.78 32.97, 106.9 30.54, 111.1 28.24 C115.29 25.95, 119.58 23.77, 123.92 21.74 C128.27 19.71, 132.69 17.81, 137.17 16.05 C141.64 14.29, 146.19 12.67, 150.77 11.19 C155.36 9.71, 160.01 8.37, 164.69 7.18 C169.37 5.99, 174.1 4.95, 178.85 4.05 C183.6 3.15, 188.39 2.4, 193.19 1.8 C198 1.2, 202.83 0.75, 207.66 0.45 C212.5 0.15, 217.35 0, 222.2 0 C227.04 0, 231.9 0.15, 236.73 0.45 C241.56 0.75, 246.4 1.2, 251.2 1.8 C256 2.4, 260.79 3.15, 265.55 4.05 C270.3 4.95, 275.03 5.99, 279.71 7.18 C284.38 8.37, 289.03 9.71, 293.62 11.19 C298.21 12.67, 302.75 14.29, 307.23 16.05 C311.7 17.81, 316.13 19.71, 320.47 21.74 C324.82 23.77, 329.1 25.95, 333.3 28.24 C337.49 30.54, 341.61 32.97, 345.64 35.53 C349.67 38.08, 353.62 40.77, 357.46 43.56 C361.3 46.36, 365.06 49.28, 368.7 52.32 C372.34 55.35, 375.89 58.5, 379.31 61.75 C382.74 65, 386.06 68.36, 389.25 71.81 C392.45 75.27, 395.53 78.83, 398.48 82.48 C401.43 86.12, 404.26 89.87, 406.95 93.69 C409.64 97.51, 412.2 101.43, 414.62 105.41 C417.05 109.39, 419.34 113.45, 421.48 117.57 C423.62 121.69, 425.63 125.89, 427.48 130.14 C429.33 134.38, 431.04 138.7, 432.6 143.05 C434.16 147.4, 435.57 151.81, 436.82 156.25 C438.08 160.69, 439.18 165.18, 440.12 169.68 C441.07 174.19, 441.86 178.74, 442.49 183.3 C443.12 187.85, 443.6 192.44, 443.92 197.02 C444.23 201.61, 444.39 206.22, 444.39 210.81" stroke="none" stroke-width="0" fill="#161410"></path><path d="M444.39 210.81 C444.39 215.41, 444.23 220.01, 443.92 224.6 C443.6 229.19, 443.12 233.77, 442.49 238.33 C441.86 242.89, 441.07 247.43, 440.12 251.94 C439.18 256.45, 438.08 260.93, 436.82 265.37 C435.57 269.81, 434.16 274.22, 432.6 278.58 C431.04 282.93, 429.33 287.24, 427.48 291.49 C425.63 295.73, 423.62 299.93, 421.48 304.05 C419.34 308.17, 417.05 312.24, 414.62 316.22 C412.2 320.2, 409.64 324.11, 406.95 327.93 C404.26 331.75, 401.43 335.5, 398.48 339.15 C395.53 342.79, 392.45 346.35, 389.25 349.81 C386.06 353.27, 382.74 356.63, 379.31 359.88 C375.89 363.13, 372.34 366.28, 368.7 369.31 C365.06 372.34, 361.3 375.26, 357.46 378.06 C353.62 380.86, 349.67 383.54, 345.64 386.1 C341.61 388.65, 337.49 391.08, 333.3 393.38 C329.1 395.68, 324.82 397.85, 320.47 399.88 C316.13 401.92, 311.7 403.82, 307.23 405.58 C302.75 407.34, 298.21 408.96, 293.62 410.44 C289.03 411.91, 284.38 413.25, 279.71 414.44 C275.03 415.63, 270.3 416.68, 265.55 417.57 C260.79 418.47, 256 419.22, 251.2 419.82 C246.4 420.42, 241.56 420.87, 236.73 421.17 C231.9 421.47, 227.04 421.62, 222.2 421.62 C217.35 421.62, 212.5 421.47, 207.66 421.17 C202.83 420.87, 198 420.42, 193.19 419.82 C188.39 419.22, 183.6 418.47, 178.85 417.57 C174.1 416.68, 169.37 415.63, 164.69 414.44 C160.01 413.25, 155.36 411.91, 150.77 410.44 C146.19 408.96, 141.64 407.34, 137.17 405.58 C132.69 403.82, 128.27 401.92, 123.92 399.88 C119.58 397.85, 115.29 395.68, 111.1 393.38 C106.9 391.08, 102.78 388.65, 98.75 386.1 C94.72 383.54, 90.78 380.86, 86.93 378.06 C83.09 375.26, 79.33 372.34, 75.69 369.31 C72.05 366.28, 68.51 363.13, 65.08 359.88 C61.65 356.63, 58.33 353.27, 55.14 349.81 C51.95 346.35, 48.87 342.79, 45.92 339.15 C42.97 335.5, 40.14 331.75, 37.45 327.93 C34.76 324.11, 32.19 320.2, 29.77 316.22 C27.35 312.24, 25.06 308.17, 22.91 304.05 C20.77 299.93, 18.77 295.73, 16.91 291.49 C15.06 287.24, 13.35 282.93, 11.79 278.58 C10.23 274.22, 8.82 269.81, 7.57 265.37 C6.32 260.93, 5.21 256.45, 4.27 251.94 C3.32 247.43, 2.53 242.89, 1.9 238.33 C1.27 233.77, 0.79 229.19, 0.48 224.6 C0.16 220.01, 0 215.41, 0 210.81 C0 206.22, 0.16 201.61, 0.48 197.02 C0.79 192.44, 1.27 187.85, 1.9 183.3 C2.53 178.74, 3.32 174.19, 4.27 169.68 C5.21 165.18, 6.32 160.69, 7.57 156.25 C8.82 151.81, 10.23 147.4, 11.79 143.05 C13.35 138.7, 15.06 134.38, 16.91 130.14 C18.77 125.89, 20.77 121.69, 22.91 117.57 C25.06 113.45, 27.35 109.39, 29.77 105.41 C32.19 101.43, 34.76 97.51, 37.45 93.69 C40.14 89.87, 42.97 86.12, 45.92 82.48 C48.87 78.83, 51.95 75.27, 55.14 71.81 C58.33 68.36, 61.65 65, 65.08 61.75 C68.51 58.5, 72.05 55.35, 75.69 52.32 C79.33 49.28, 83.09 46.36, 86.93 43.56 C90.78 40.77, 94.72 38.08, 98.75 35.53 C102.78 32.97, 106.9 30.54, 111.1 28.24 C115.29 25.95, 119.58 23.77, 123.92 21.74 C128.27 19.71, 132.69 17.81, 137.17 16.05 C141.64 14.29, 146.19 12.67, 150.77 11.19 C155.36 9.71, 160.01 8.37, 164.69 7.18 C169.37 5.99, 174.1 4.95, 178.85 4.05 C183.6 3.15, 188.39 2.4, 193.19 1.8 C198 1.2, 202.83 0.75, 207.66 0.45 C212.5 0.15, 217.35 0, 222.2 0 C227.04 0, 231.9 0.15, 236.73 0.45 C241.56 0.75, 246.4 1.2, 251.2 1.8 C256 2.4, 260.79 3.15, 265.55 4.05 C270.3 4.95, 275.03 5.99, 279.71 7.18 C284.38 8.37, 289.03 9.71, 293.62 11.19 C298.21 12.67, 302.75 14.29, 307.23 16.05 C311.7 17.81, 316.13 19.71, 320.47 21.74 C324.82 23.77, 329.1 25.95, 333.3 28.24 C337.49 30.54, 341.61 32.97, 345.64 35.53 C349.67 38.08, 353.62 40.77, 357.46 43.56 C361.3 46.36, 365.06 49.28, 368.7 52.32 C372.34 55.35, 375.89 58.5, 379.31 61.75 C382.74 65, 386.06 68.36, 389.25 71.81 C392.45 75.27, 395.53 78.83, 398.48 82.48 C401.43 86.12, 404.26 89.87, 406.95 93.69 C409.64 97.51, 412.2 101.43, 414.62 105.41 C417.05 109.39, 419.34 113.45, 421.48 117.57 C423.62 121.69, 425.63 125.89, 427.48 130.14 C429.33 134.38, 431.04 138.7, 432.6 143.05 C434.16 147.4, 435.57 151.81, 436.82 156.25 C438.08 160.69, 439.18 165.18, 440.12 169.68 C441.07 174.19, 441.86 178.74, 442.49 183.3 C443.12 187.85, 443.6 192.44, 443.92 197.02 C444.23 201.61, 444.39 206.22, 444.39 210.81" stroke="#c75923" stroke-width="4" fill="none"></path></g><g stroke-linecap="round" transform="translate(115.99481221400856 105.7880446971376) rotate(0 135.43792085125688 131.51222894148077)"><path d="M270.88 131.51 C270.88 135.13, 270.72 138.76, 270.41 142.37 C270.11 145.98, 269.64 149.59, 269.03 153.16 C268.42 156.73, 267.65 160.29, 266.73 163.8 C265.82 167.31, 264.75 170.79, 263.54 174.21 C262.33 177.64, 260.97 181.02, 259.47 184.34 C257.97 187.66, 256.33 190.92, 254.55 194.11 C252.78 197.29, 250.86 200.41, 248.82 203.44 C246.78 206.47, 244.61 209.43, 242.32 212.29 C240.03 215.15, 237.61 217.92, 235.08 220.58 C232.56 223.25, 229.91 225.82, 227.17 228.27 C224.42 230.72, 221.57 233.07, 218.63 235.29 C215.68 237.52, 212.64 239.63, 209.52 241.61 C206.39 243.59, 203.18 245.45, 199.9 247.17 C196.62 248.9, 193.26 250.49, 189.84 251.95 C186.43 253.4, 182.94 254.72, 179.41 255.9 C175.89 257.07, 172.3 258.11, 168.69 259 C165.07 259.89, 161.41 260.63, 157.73 261.23 C154.05 261.83, 150.34 262.28, 146.62 262.58 C142.91 262.87, 139.17 263.02, 135.44 263.02 C131.71 263.02, 127.97 262.87, 124.25 262.58 C120.54 262.28, 116.82 261.83, 113.15 261.23 C109.47 260.63, 105.8 259.89, 102.19 259 C98.58 258.11, 94.99 257.07, 91.46 255.9 C87.94 254.72, 84.45 253.4, 81.03 251.95 C77.62 250.49, 74.26 248.9, 70.98 247.17 C67.7 245.45, 64.48 243.59, 61.36 241.61 C58.24 239.63, 55.19 237.52, 52.25 235.29 C49.31 233.07, 46.45 230.72, 43.71 228.27 C40.97 225.82, 38.32 223.25, 35.79 220.58 C33.27 217.92, 30.85 215.15, 28.56 212.29 C26.27 209.43, 24.09 206.47, 22.05 203.44 C20.01 200.41, 18.1 197.29, 16.32 194.11 C14.55 190.92, 12.91 187.66, 11.41 184.34 C9.91 181.02, 8.55 177.64, 7.34 174.21 C6.13 170.79, 5.06 167.31, 4.14 163.8 C3.23 160.29, 2.46 156.73, 1.85 153.16 C1.23 149.59, 0.77 145.98, 0.46 142.37 C0.15 138.76, 0 135.13, 0 131.51 C0 127.89, 0.15 124.26, 0.46 120.65 C0.77 117.04, 1.23 113.44, 1.85 109.87 C2.46 106.3, 3.23 102.74, 4.14 99.23 C5.06 95.72, 6.13 92.23, 7.34 88.81 C8.55 85.39, 9.91 82, 11.41 78.68 C12.91 75.37, 14.55 72.1, 16.32 68.92 C18.1 65.74, 20.01 62.61, 22.05 59.58 C24.09 56.55, 26.27 53.59, 28.56 50.74 C30.85 47.88, 33.27 45.1, 35.79 42.44 C38.32 39.78, 40.97 37.21, 43.71 34.76 C46.45 32.3, 49.31 29.95, 52.25 27.73 C55.19 25.51, 58.24 23.39, 61.36 21.41 C64.48 19.43, 67.7 17.57, 70.98 15.85 C74.26 14.13, 77.62 12.53, 81.03 11.08 C84.45 9.62, 87.94 8.3, 91.46 7.13 C94.99 5.95, 98.58 4.91, 102.19 4.02 C105.8 3.14, 109.47 2.39, 113.15 1.79 C116.82 1.2, 120.54 0.75, 124.25 0.45 C127.97 0.15, 131.71 0, 135.44 0 C139.17 0, 142.91 0.15, 146.62 0.45 C150.34 0.75, 154.05 1.2, 157.73 1.79 C161.41 2.39, 165.07 3.14, 168.69 4.02 C172.3 4.91, 175.89 5.95, 179.41 7.13 C182.94 8.3, 186.43 9.62, 189.84 11.08 C193.26 12.53, 196.62 14.13, 199.9 15.85 C203.18 17.57, 206.39 19.43, 209.52 21.41 C212.64 23.39, 215.68 25.51, 218.63 27.73 C221.57 29.95, 224.42 32.3, 227.17 34.76 C229.91 37.21, 232.56 39.78, 235.08 42.44 C237.61 45.1, 240.03 47.88, 242.32 50.74 C244.61 53.59, 246.78 56.55, 248.82 59.58 C250.86 62.61, 252.78 65.74, 254.55 68.92 C256.33 72.1, 257.97 75.37, 259.47 78.68 C260.97 82, 262.33 85.39, 263.54 88.81 C264.75 92.23, 265.82 95.72, 266.73 99.23 C267.65 102.74, 268.42 106.3, 269.03 109.87 C269.64 113.44, 270.11 117.04, 270.41 120.65 C270.72 124.26, 270.88 127.89, 270.88 131.51" stroke="none" stroke-width="0" fill="#c75923"></path><path d="M270.88 131.51 C270.88 135.13, 270.72 138.76, 270.41 142.37 C270.11 145.98, 269.64 149.59, 269.03 153.16 C268.42 156.73, 267.65 160.29, 266.73 163.8 C265.82 167.31, 264.75 170.79, 263.54 174.21 C262.33 177.64, 260.97 181.02, 259.47 184.34 C257.97 187.66, 256.33 190.92, 254.55 194.11 C252.78 197.29, 250.86 200.41, 248.82 203.44 C246.78 206.47, 244.61 209.43, 242.32 212.29 C240.03 215.15, 237.61 217.92, 235.08 220.58 C232.56 223.25, 229.91 225.82, 227.17 228.27 C224.42 230.72, 221.57 233.07, 218.63 235.29 C215.68 237.52, 212.64 239.63, 209.52 241.61 C206.39 243.59, 203.18 245.45, 199.9 247.17 C196.62 248.9, 193.26 250.49, 189.84 251.95 C186.43 253.4, 182.94 254.72, 179.41 255.9 C175.89 257.07, 172.3 258.11, 168.69 259 C165.07 259.89, 161.41 260.63, 157.73 261.23 C154.05 261.83, 150.34 262.28, 146.62 262.58 C142.91 262.87, 139.17 263.02, 135.44 263.02 C131.71 263.02, 127.97 262.87, 124.25 262.58 C120.54 262.28, 116.82 261.83, 113.15 261.23 C109.47 260.63, 105.8 259.89, 102.19 259 C98.58 258.11, 94.99 257.07, 91.46 255.9 C87.94 254.72, 84.45 253.4, 81.03 251.95 C77.62 250.49, 74.26 248.9, 70.98 247.17 C67.7 245.45, 64.48 243.59, 61.36 241.61 C58.24 239.63, 55.19 237.52, 52.25 235.29 C49.31 233.07, 46.45 230.72, 43.71 228.27 C40.97 225.82, 38.32 223.25, 35.79 220.58 C33.27 217.92, 30.85 215.15, 28.56 212.29 C26.27 209.43, 24.09 206.47, 22.05 203.44 C20.01 200.41, 18.1 197.29, 16.32 194.11 C14.55 190.92, 12.91 187.66, 11.41 184.34 C9.91 181.02, 8.55 177.64, 7.34 174.21 C6.13 170.79, 5.06 167.31, 4.14 163.8 C3.23 160.29, 2.46 156.73, 1.85 153.16 C1.23 149.59, 0.77 145.98, 0.46 142.37 C0.15 138.76, 0 135.13, 0 131.51 C0 127.89, 0.15 124.26, 0.46 120.65 C0.77 117.04, 1.23 113.44, 1.85 109.87 C2.46 106.3, 3.23 102.74, 4.14 99.23 C5.06 95.72, 6.13 92.23, 7.34 88.81 C8.55 85.39, 9.91 82, 11.41 78.68 C12.91 75.37, 14.55 72.1, 16.32 68.92 C18.1 65.74, 20.01 62.61, 22.05 59.58 C24.09 56.55, 26.27 53.59, 28.56 50.74 C30.85 47.88, 33.27 45.1, 35.79 42.44 C38.32 39.78, 40.97 37.21, 43.71 34.76 C46.45 32.3, 49.31 29.95, 52.25 27.73 C55.19 25.51, 58.24 23.39, 61.36 21.41 C64.48 19.43, 67.7 17.57, 70.98 15.85 C74.26 14.13, 77.62 12.53, 81.03 11.08 C84.45 9.62, 87.94 8.3, 91.46 7.13 C94.99 5.95, 98.58 4.91, 102.19 4.02 C105.8 3.14, 109.47 2.39, 113.15 1.79 C116.82 1.2, 120.54 0.75, 124.25 0.45 C127.97 0.15, 131.71 0, 135.44 0 C139.17 0, 142.91 0.15, 146.62 0.45 C150.34 0.75, 154.05 1.2, 157.73 1.79 C161.41 2.39, 165.07 3.14, 168.69 4.02 C172.3 4.91, 175.89 5.95, 179.41 7.13 C182.94 8.3, 186.43 9.62, 189.84 11.08 C193.26 12.53, 196.62 14.13, 199.9 15.85 C203.18 17.57, 206.39 19.43, 209.52 21.41 C212.64 23.39, 215.68 25.51, 218.63 27.73 C221.57 29.95, 224.42 32.3, 227.17 34.76 C229.91 37.21, 232.56 39.78, 235.08 42.44 C237.61 45.1, 240.03 47.88, 242.32 50.74 C244.61 53.59, 246.78 56.55, 248.82 59.58 C250.86 62.61, 252.78 65.74, 254.55 68.92 C256.33 72.1, 257.97 75.37, 259.47 78.68 C260.97 82, 262.33 85.39, 263.54 88.81 C264.75 92.23, 265.82 95.72, 266.73 99.23 C267.65 102.74, 268.42 106.3, 269.03 109.87 C269.64 113.44, 270.11 117.04, 270.41 120.65 C270.72 124.26, 270.88 127.89, 270.88 131.51" stroke="#c75923" stroke-width="4" fill="none"></path></g></svg>